<svg xmlns="http://www.w3.org/2000/svg" aria-hidden="true">
  <symbol id="beer-toast" viewBox="0 0 48 48">
    <g stroke="#50392b" stroke-width="2.7" stroke-linejoin="round" stroke-linecap="round">
      <path d="m9 14 3-2h12l3 3-2 25H11L8 17Z" fill="#e8a64a"/><path d="M27 19h5a5 5 0 0 1 0 10h-6" fill="none"/>
      <path d="M12 14q-2-5 2-7 1-5 6-3 4-2 6 2 4 1 2 7l-3 4H12Z" fill="#fff2cf"/>
      <path d="m24 11 3-2 3 3-2 24h-12l-2-21Z" fill="#efc15f"/><path d="M30 17h4a5 5 0 0 1 0 10h-4" fill="none"/>
      <path d="M26 12q-2-5 2-7 1-4 5-2 4-2 6 2 4 1 2 7l-3 3H27Z" fill="#fff5db"/>
      <path d="M14 21v13m17-12v9" fill="none" stroke="#fff0ba" stroke-width="1.6"/>
    </g>
  </symbol>
  <symbol id="coin" viewBox="0 0 48 48">
    <circle cx="24" cy="24" r="18" fill="#e9a83f" stroke="#65432c" stroke-width="3"/><circle cx="24" cy="24" r="13.5" fill="#ffd977" stroke="#fff0b2" stroke-width="2"/>
    <path d="m24 14 2.7 6.2 6.7.6-5.1 4.4 1.5 6.6-5.8-3.5-5.8 3.5 1.5-6.6-5.1-4.4 6.7-.6Z" fill="#d98b35" stroke="#a9602d" stroke-width="1.5"/>
    <path d="M12 20q1-5 5-7" fill="none" stroke="#fff2c6" stroke-width="2" stroke-linecap="round"/>
  </symbol>
  <symbol id="reputation-star" viewBox="0 0 48 48">
    <path d="m24 4 5.7 12.1 13.3 1.8-9.7 9.2 2.4 13.2L24 34l-11.7 6.3 2.4-13.2L5 17.9l13.3-1.8Z" fill="#f4bd4f" stroke="#68472d" stroke-width="3" stroke-linejoin="round"/>
    <path d="m24 11 3.4 7.2 7.9 1.1-5.8 5.5 1.4 7.8-6.9-3.7-6.9 3.7 1.4-7.8-5.8-5.5 7.9-1.1Z" fill="#ffe99a"/>
    <path d="M8 8 10 4m28 8 3-3" stroke="#fff0be" stroke-width="2.5" stroke-linecap="round"/>
  </symbol>
  <symbol id="music-note" viewBox="0 0 48 48">
    <path d="M20 31V10l20-4v22" fill="none" stroke="#f3cc75" stroke-width="5" stroke-linecap="round" stroke-linejoin="round"/>
    <path d="M20 31V10l20-4v22" fill="none" stroke="#563d2c" stroke-width="2.6" stroke-linecap="round" stroke-linejoin="round"/>
    <ellipse cx="14" cy="33" rx="7" ry="5" transform="rotate(-18 14 33)" fill="#d97743" stroke="#563d2c" stroke-width="2.6"/>
    <ellipse cx="34" cy="29" rx="7" ry="5" transform="rotate(-18 34 29)" fill="#d97743" stroke="#563d2c" stroke-width="2.6"/>
    <path d="m24 13 13-2" stroke="#fff0bd" stroke-width="1.5" stroke-linecap="round"/>
  </symbol>
  <symbol id="play" viewBox="0 0 48 48"><path d="M14 8q0-3 3-1l23 15q3 2 0 4L17 41q-3 2-3-2Z" fill="#f4cf78" stroke="#50392b" stroke-width="3" stroke-linejoin="round"/><path d="m19 14 14 10-14 10Z" fill="#fff2c8"/></symbol>
  <symbol id="pause" viewBox="0 0 48 48"><rect x="10" y="7" width="10" height="34" rx="3" fill="#f4cf78" stroke="#50392b" stroke-width="3"/><rect x="28" y="7" width="10" height="34" rx="3" fill="#f4cf78" stroke="#50392b" stroke-width="3"/><path d="M13 11v20m18-20v20" stroke="#fff2c8" stroke-width="2" stroke-linecap="round"/></symbol>
  <symbol id="fullscreen" viewBox="0 0 48 48"><g fill="none" stroke="#fff0c8" stroke-width="4" stroke-linecap="round" stroke-linejoin="round"><path d="M8 19V8h11M29 8h11v11M40 29v11H29M19 40H8V29"/><path d="M8 8 20 20m20-12L28 20M40 40 28 28M8 40l12-12" stroke="#bd8650" stroke-width="1.5"/></g></symbol>
  <symbol id="exit-fullscreen" viewBox="0 0 48 48"><g fill="none" stroke="#fff0c8" stroke-width="4" stroke-linecap="round" stroke-linejoin="round"><path d="M8 17h10V7m12 0v10h10M40 31H30v10M18 41V31H8"/><path d="m18 17-8-8m20 8 8-8M30 31l8 8m-20-8-8 8" stroke="#bd8650" stroke-width="1.5"/></g></symbol>
  <symbol id="arrow-left" viewBox="0 0 48 48"><path d="M39 24H11m0 0 12-12M11 24l12 12" fill="none" stroke="#563e2e" stroke-width="7" stroke-linecap="round" stroke-linejoin="round"/><path d="M39 24H11m0 0 12-12M11 24l12 12" fill="none" stroke="#ffe8ae" stroke-width="3.5" stroke-linecap="round" stroke-linejoin="round"/></symbol>
  <symbol id="arrow-right" viewBox="0 0 48 48"><path d="M9 24h28m0 0L25 12m12 12L25 36" fill="none" stroke="#563e2e" stroke-width="7" stroke-linecap="round" stroke-linejoin="round"/><path d="M9 24h28m0 0L25 12m12 12L25 36" fill="none" stroke="#ffe8ae" stroke-width="3.5" stroke-linecap="round" stroke-linejoin="round"/></symbol>
  <symbol id="map-pan" viewBox="0 0 48 48"><path d="M8 24h32M8 24l7-7m-7 7 7 7m25-7-7-7m7 7-7 7" fill="none" stroke="#563e2e" stroke-width="6" stroke-linecap="round" stroke-linejoin="round"/><path d="M8 24h32M8 24l7-7m-7 7 7 7m25-7-7-7m7 7-7 7" fill="none" stroke="#ffe8ae" stroke-width="3" stroke-linecap="round" stroke-linejoin="round"/></symbol>
  <symbol id="sun" viewBox="0 0 48 48"><circle cx="24" cy="24" r="10" fill="#f7be50" stroke="#62432c" stroke-width="3"/><path d="M24 3v6m0 30v6M3 24h6m30 0h6M9 9l5 5m20 20 5 5M39 9l-5 5M14 34l-5 5" stroke="#c9813d" stroke-width="4" stroke-linecap="round"/><path d="M20 19q2-3 5-2" fill="none" stroke="#fff3c5" stroke-width="2" stroke-linecap="round"/></symbol>
  <symbol id="cloud" viewBox="0 0 48 48"><path d="M12 36h25a8 8 0 0 0 1-16 13 13 0 0 0-25-2 9 9 0 0 0-1 18Z" fill="#d9e5dc" stroke="#43574a" stroke-width="3" stroke-linejoin="round"/><path d="M17 22q4-7 10-4m-13 12h18" fill="none" stroke="#fff" stroke-width="2.2" stroke-linecap="round"/></symbol>
  <symbol id="rain" viewBox="0 0 48 48"><path d="M11 28h26a7 7 0 0 0 1-14 12 12 0 0 0-23-2 8 8 0 0 0-4 16Z" fill="#b9d4d7" stroke="#43574a" stroke-width="3" stroke-linejoin="round"/><path d="m16 33-3 6m12-6-3 6m12-6-3 6" stroke="#4a95a0" stroke-width="3.5" stroke-linecap="round"/><path d="M17 15q4-5 9-3" fill="none" stroke="#fff" stroke-width="2" stroke-linecap="round"/></symbol>
  <symbol id="leaf" viewBox="0 0 48 48"><path d="M9 37C8 17 20 7 40 8c1 20-9 32-29 29Z" fill="#77a75c" stroke="#435a3f" stroke-width="3" stroke-linejoin="round"/><path d="M12 36 34 14m-13 9-1-8m7 4 7 1m-18 9 1 7" fill="none" stroke="#e6dc91" stroke-width="2" stroke-linecap="round"/></symbol>
  <symbol id="corn" viewBox="0 0 48 48"><path d="M17 8q7-6 14 0l4 24q-2 8-9 10-8-2-10-10Z" fill="#f4c956" stroke="#5b422b" stroke-width="3"/><path d="M16 17q-8 7-8 20 9 0 14-8m11-12q7 8 7 19-8 0-14-7" fill="#76a35c" stroke="#496044" stroke-width="3" stroke-linejoin="round"/><path d="m18 15 12-2m-13 8 14-2m-13 8 14-2m-12 8 11-2" stroke="#d79637" stroke-width="1.7" stroke-linecap="round"/><path d="M22 10q3-3 6 0" fill="none" stroke="#fff1ad" stroke-width="2" stroke-linecap="round"/></symbol>
  <symbol id="sauce-jar" viewBox="0 0 48 48"><path d="M16 10h16v6l4 4v19q0 3-4 3H16q-4 0-4-3V20l4-4Z" fill="#d98b43" stroke="#563e2e" stroke-width="3" stroke-linejoin="round"/><path d="M15 11h18v-5H15Z" fill="#638c69" stroke="#563e2e" stroke-width="3" stroke-linejoin="round"/><path d="M15 25h19v9H15Z" fill="#f4d89a" stroke="#a55d36" stroke-width="2"/><path d="M19 28h11m-11 4h8" stroke="#bf7441" stroke-width="1.8" stroke-linecap="round"/><path d="M19 19v2m11-2v2" stroke="#fff0be" stroke-width="2" stroke-linecap="round"/></symbol>
  <symbol id="pork-skewer" viewBox="0 0 48 48"><path d="m9 39 30-30" stroke="#754c2e" stroke-width="3" stroke-linecap="round"/><path d="m15 32-5-5q-2-3 1-6l4-4q3-2 6 1l4 4Zm10-10-5-5q-2-3 1-6l4-4q3-2 6 1l4 4Z" fill="#d8763c" stroke="#563b2c" stroke-width="3" stroke-linejoin="round"/><path d="m13 24 6-6m8-2 5-5" stroke="#f6c075" stroke-width="2" stroke-linecap="round"/><path d="m10 38 4 2" stroke="#563b2c" stroke-width="3" stroke-linecap="round"/></symbol>
  <symbol id="egg-grill" viewBox="0 0 48 48"><path d="M8 31q16-7 32 0l-3 9H11Z" fill="#637b6a" stroke="#4f3b2c" stroke-width="3" stroke-linejoin="round"/><path d="M12 30q0-12 12-12t12 12q-12 5-24 0Z" fill="#fff5dd" stroke="#573e2d" stroke-width="3"/><circle cx="24" cy="27" r="5.5" fill="#efad43" stroke="#cb7b39" stroke-width="2"/><path d="M16 10q-3-4 0-7m8 8q-3-4 0-7m8 7q-3-4 0-7" fill="none" stroke="#a6aaa0" stroke-width="2.4" stroke-linecap="round"/></symbol>
  <symbol id="greens" viewBox="0 0 48 48"><path d="M24 42V20m0 10C11 31 7 24 8 16q11-1 16 9m0 0c2-12 10-17 18-15 1 9-5 17-18 18" fill="#78a75e" stroke="#465d3e" stroke-width="3" stroke-linecap="round" stroke-linejoin="round"/><path d="M10 17q8 1 12 7m17-4q-8 1-13 8" fill="none" stroke="#d9df9e" stroke-width="2" stroke-linecap="round"/><path d="M18 42h13" stroke="#aa7440" stroke-width="3" stroke-linecap="round"/></symbol>
  <symbol id="grill-meal" viewBox="0 0 48 48"><ellipse cx="24" cy="29" rx="19" ry="12" fill="#efe2c2" stroke="#563f30" stroke-width="3"/><ellipse cx="24" cy="27" rx="12" ry="7" fill="#e99848" stroke="#aa6335" stroke-width="2"/><path d="M15 26q3-5 7 0t7 0 5 0" fill="none" stroke="#713d29" stroke-width="3" stroke-linecap="round"/><path d="M12 17q-2-4 1-6m10 5q-2-4 1-6m10 7q-2-4 1-6" fill="none" stroke="#a5a49a" stroke-width="2" stroke-linecap="round"/><path d="M10 31q3 4 7 4" fill="none" stroke="#fff" stroke-width="1.8" stroke-linecap="round"/></symbol>
  <symbol id="lantern" viewBox="0 0 48 48"><path d="M24 5v5m-8 4q8-5 16 0l-2 4 3 4v15q-9 8-18 0V22l3-4Z" fill="#e78a3f" stroke="#563e2e" stroke-width="3" stroke-linejoin="round"/><path d="M17 18h14m-13 5h12m-12 5h12m-12 5h12" stroke="#ffcc73" stroke-width="2"/><path d="M21 9h6m-2 32-1 3" stroke="#563e2e" stroke-width="3" stroke-linecap="round"/><path d="M20 16q4-2 8 0" stroke="#fff0ba" stroke-width="2" stroke-linecap="round"/></symbol>
  <symbol id="storefront" viewBox="0 0 48 48"><path d="M8 20h32v22H8Z" fill="#e7c78f" stroke="#513b2c" stroke-width="3" stroke-linejoin="round"/><path d="M6 20 11 8h26l5 12Z" fill="#397d72" stroke="#513b2c" stroke-width="3" stroke-linejoin="round"/><path d="M9 15h30l2 5H7Z" fill="#f1d8a7" stroke="#513b2c" stroke-width="2"/><path d="M13 15v5m8-5v5m8-5v5m8-5v5" stroke="#d17a47" stroke-width="4"/><path d="M13 27h10v15H13Zm15 0h13v9H28Z" fill="#315b51" stroke="#513b2c" stroke-width="2.5"/><path d="M10 12h27" stroke="#fff0c3" stroke-width="1.8" stroke-linecap="round"/></symbol>
  <symbol id="staff-chef" viewBox="0 0 48 48"><path d="M10 43q1-12 14-12t14 12" fill="#37685a" stroke="#503b2c" stroke-width="3" stroke-linejoin="round"/><path d="M16 31v-5h16v5l-8 5Z" fill="#f4e7c9" stroke="#503b2c" stroke-width="2.5" stroke-linejoin="round"/><circle cx="24" cy="18" r="10" fill="#f0b17a" stroke="#503b2c" stroke-width="3"/><path d="M14 14q-4-8 4-9 3-5 8-2 7-2 8 6 3 3 0 7-5-4-10-4-4 4-10 2Z" fill="#fff2d9" stroke="#503b2c" stroke-width="3" stroke-linejoin="round"/><path d="M21 18h1m6 0h1m-6 5q2 2 4 0" stroke="#563d2d" stroke-width="2" stroke-linecap="round"/><path d="M21 35h6" stroke="#e0a04a" stroke-width="2" stroke-linecap="round"/></symbol>
  <symbol id="menu-book" viewBox="0 0 48 48"><path d="M8 9q9-4 16 2 7-6 16-2v29q-9-4-16 2-7-6-16-2Z" fill="#f6e4bb" stroke="#563e2e" stroke-width="3" stroke-linejoin="round"/><path d="M24 12v26M13 16q5-2 8 1m-8 5q5-2 8 1m11-6q4-2 7-1m-7 7q4-2 7-1" fill="none" stroke="#b87343" stroke-width="2" stroke-linecap="round"/><path d="M17 8 19 5m12 4 2-3" stroke="#fff0c5" stroke-width="2" stroke-linecap="round"/></symbol>
  <symbol id="sparkles" viewBox="0 0 48 48"><path d="m18 7 4 11 11 4-11 4-4 11-4-11-11-4 11-4Zm19 20 2.5 6.5L46 36l-6.5 2.5L37 45l-2.5-6.5L28 36l6.5-2.5ZM36 4l1.8 4.2L42 10l-4.2 1.8L36 16l-1.8-4.2L30 10l4.2-1.8Z" fill="#f4c763" stroke="#67462e" stroke-width="2.4" stroke-linejoin="round"/><path d="M16 17 18 22l5 2-5 2-2 5-2-5-5-2 5-2Z" fill="#fff0b5"/></symbol>
  <symbol id="basket" viewBox="0 0 48 48"><path d="m8 19 4 22h24l4-22Z" fill="#c9894a" stroke="#553c2b" stroke-width="3" stroke-linejoin="round"/><path d="M14 19q2-14 10-14t10 14" fill="none" stroke="#70472c" stroke-width="3"/><path d="m14 21 3 16m8-17v17m8-16-3 16" stroke="#efc383" stroke-width="2" stroke-linecap="round"/><path d="M11 25h26" stroke="#70472c" stroke-width="2"/></symbol>
  <symbol id="upgrade-shop" viewBox="0 0 48 48"><path d="M7 21 24 7l17 14v21H7Z" fill="#dfb977" stroke="#563e2d" stroke-width="3" stroke-linejoin="round"/><path d="M4 22 24 5l20 17" fill="none" stroke="#b45f39" stroke-width="5" stroke-linecap="round" stroke-linejoin="round"/><path d="M13 26h11v16H13Zm15 0h10v8H28Z" fill="#37746a" stroke="#563e2d" stroke-width="2.5"/><path d="M33 5v12m-5-7 5-5 5 5" fill="none" stroke="#f6d16f" stroke-width="3" stroke-linecap="round" stroke-linejoin="round"/></symbol>
  <symbol id="lock" viewBox="0 0 48 48"><rect x="9" y="21" width="30" height="22" rx="4" fill="#bd8050" stroke="#563e2e" stroke-width="3"/><path d="M15 21v-7a9 9 0 0 1 18 0v7" fill="none" stroke="#563e2e" stroke-width="4" stroke-linecap="round"/><circle cx="24" cy="31" r="3" fill="#ffe7a5"/><path d="M24 34v4" stroke="#ffe7a5" stroke-width="2.5" stroke-linecap="round"/></symbol>
  <symbol id="edit-sign" viewBox="0 0 48 48"><path d="m9 34-2 8 9-2 23-23-7-7Z" fill="#e3b46a" stroke="#543c2c" stroke-width="3" stroke-linejoin="round"/><path d="m28 14 7 7M9 34l7 7m-8 1h32" stroke="#fff0c4" stroke-width="2" stroke-linecap="round"/><path d="m33 10 3-3q2-2 4 0l2 2q2 2 0 4l-3 3" fill="#cb7541" stroke="#543c2c" stroke-width="2.5" stroke-linejoin="round"/></symbol>
  <symbol id="crate" viewBox="0 0 48 48"><path d="M6 15 24 7l18 8v26H6Z" fill="#c17c43" stroke="#513b2c" stroke-width="3" stroke-linejoin="round"/><path d="M6 15h36M24 8v32M9 23h12m6 0h12m-30 8h12m6 0h12" stroke="#f0c17a" stroke-width="2.5" stroke-linecap="round"/><path d="m18 15 6 8 6-8" fill="#6d9a5c" stroke="#513b2c" stroke-width="2" stroke-linejoin="round"/></symbol>
  <symbol id="check" viewBox="0 0 48 48"><path d="m8 25 11 11L40 12" fill="none" stroke="#376e53" stroke-width="8" stroke-linecap="round" stroke-linejoin="round"/><path d="m8 23 11 11L40 10" fill="none" stroke="#dcebb9" stroke-width="3.5" stroke-linecap="round" stroke-linejoin="round"/></symbol>
  <symbol id="close" viewBox="0 0 48 48"><path d="m12 12 24 24M36 12 12 36" stroke="#634a36" stroke-width="7" stroke-linecap="round"/><path d="m12 11 24 24M36 11 12 35" stroke="#fff1d1" stroke-width="3" stroke-linecap="round"/></symbol>
  <symbol id="plus" viewBox="0 0 48 48"><path d="M24 9v30M9 24h30" stroke="#563e2e" stroke-width="8" stroke-linecap="round"/><path d="M24 9v30M9 24h30" stroke="#fff1c6" stroke-width="4" stroke-linecap="round"/></symbol>
  <symbol id="minus" viewBox="0 0 48 48"><path d="M9 24h30" stroke="#563e2e" stroke-width="8" stroke-linecap="round"/><path d="M9 24h30" stroke="#fff1c6" stroke-width="4" stroke-linecap="round"/></symbol>
</svg>
